# Blender v2.79 (sub 0) OBJ File: ''
# www.blender.org
mtllib hammer.mtl
o Cube
v 1.000000 -1.000000 -1.000000
v 1.000000 -1.000000 1.000000
v -1.000000 -1.000000 1.000000
v -1.000000 -1.000000 -1.000000
v 1.000000 1.000000 -0.999999
v 0.999999 1.000000 1.000001
v -1.000000 1.000000 1.000000
v -1.000000 1.000000 -1.000000
v 1.000000 -1.000000 0.000000
v 0.000000 -1.000000 -1.000000
v 1.000000 0.000000 -1.000000
v 0.000000 -1.000000 1.000000
v 1.000000 0.000000 1.000000
v -1.000000 -1.000000 -0.000000
v -1.000000 0.000000 1.000000
v -1.000000 0.000000 -1.000000
v 1.000000 1.000000 0.000001
v 0.000000 1.000000 -1.000000
v -0.000001 1.000000 1.000000
v -1.000000 1.000000 -0.000000
v 0.000000 0.000000 -1.000000
v -0.000000 0.000000 1.000000
v 1.129824 0.000000 0.000000
v -0.000000 2.388400 0.000000
v 0.000000 -2.172243 -0.000000
v 1.000000 -1.000000 0.500000
v -0.500000 -1.000000 -1.000000
v 1.000000 0.500000 -1.000000
v -0.500000 -1.000000 1.000000
v 1.000000 0.500000 1.000000
v -1.000000 -1.000000 -0.500000
v -1.000000 0.500000 1.000000
v -1.000000 0.500000 -1.000000
v 1.000000 1.000000 0.500001
v -0.500000 1.000000 -1.000000
v -0.500000 1.000000 1.000000
v -1.000000 1.000000 -0.500000
v 1.000000 -1.000000 -0.500000
v 0.500000 -1.000000 -1.000000
v 1.000000 -0.500000 -1.000000
v 0.500000 -1.000000 1.000000
v 1.000000 -0.500000 1.000000
v -1.000000 -1.000000 0.500000
v -1.000000 -0.500000 1.000000
v -1.000000 -0.500000 -1.000000
v 1.000000 1.000000 -0.499999
v 0.500000 1.000000 -1.000000
v 0.499999 1.000000 1.000000
v -1.000000 1.000000 0.500000
v -0.500000 0.000000 -1.000000
v 0.500000 0.000000 -1.000000
v 0.000000 0.500000 -1.000000
v 0.000000 -0.500000 -1.000000
v -1.000000 0.000000 -0.500000
v -1.000000 0.000000 0.500000
v -1.000000 -0.500000 -0.000000
v -1.000000 0.500000 -0.000000
v -0.500000 0.000000 1.000000
v 0.500000 0.000000 1.000000
v -0.000000 -0.500000 1.000000
v -0.000000 0.500000 1.000000
v 1.129824 0.000000 0.500000
v 1.129824 0.000000 -0.500000
v 1.129824 -0.500000 0.000000
v 1.129824 0.500000 0.000000
v -0.000000 2.388400 0.500000
v 0.000000 2.388400 -0.500000
v 0.500000 2.388400 0.000000
v -0.500000 2.388400 0.000000
v -0.500000 -2.172243 -0.000000
v 0.500000 -2.172243 -0.000000
v 0.000000 -2.172243 -0.500000
v 0.000000 -2.172243 0.500000
v 0.500000 -2.172243 0.500000
v 0.500000 -2.172243 -0.500000
v -0.500000 -2.172243 -0.500000
v -0.500000 2.388400 -0.500000
v 0.500000 2.388400 -0.500000
v 0.500000 2.388400 0.500000
v 1.129824 0.500000 -0.500000
v 1.129824 -0.500000 -0.500000
v 1.129824 -0.500000 0.500000
v 0.500000 0.500000 1.000000
v 0.500000 -0.500000 1.000000
v -0.500000 -0.500000 1.000000
v -1.000000 0.500000 0.500000
v -1.000000 -0.500000 0.500000
v -1.000000 -0.500000 -0.500000
v 0.500000 -0.500000 -1.000000
v 0.500000 0.500000 -1.000000
v -0.500000 0.500000 -1.000000
v -0.500000 -0.500000 -1.000000
v -1.000000 0.500000 -0.500000
v -0.500000 0.500000 1.000000
v 1.129824 0.500000 0.500000
v -0.500000 2.388400 0.500000
v -0.500000 -2.172243 0.500000
v -5.450843 0.000000 0.500000
v -5.450843 0.000000 -0.000000
v -5.450843 0.500000 -0.000000
v -5.450842 0.000000 -0.500000
v -5.450843 -0.500000 -0.000000
v -5.450843 0.500000 0.500000
v -5.450843 -0.500000 0.500000
v -5.450842 -0.500000 -0.500000
v -5.450843 0.500000 -0.500000
vn -0.6055 -0.5165 0.6055
vn -0.6301 0.4538 0.6301
vn 0.9836 0.1277 0.1277
vn -0.0000 0.0000 1.0000
vn -1.0000 -0.0000 -0.0000
vn 0.0000 0.0000 -1.0000
vn 0.0000 -1.0000 0.0000
vn 0.9679 0.0000 0.2513
vn 1.0000 -0.0000 0.0000
vn 0.9679 0.2513 0.0000
vn -0.0000 0.3388 0.9408
vn 0.0000 1.0000 0.0000
vn -0.9408 0.3388 -0.0000
vn -0.9198 -0.3923 -0.0000
vn -0.0000 -0.3923 0.9198
vn 0.9198 -0.3923 0.0000
vn 0.6055 -0.5165 0.6055
vn 0.0000 -0.3923 -0.9198
vn 0.6055 -0.5165 -0.6055
vn -0.6055 -0.5165 -0.6055
vn 0.0000 0.3388 -0.9408
vn -0.6301 0.4538 -0.6301
vn 0.9408 0.3388 0.0000
vn 0.6301 0.4538 -0.6301
vn 0.6301 0.4538 0.6301
vn 0.9679 0.0000 -0.2513
vn 0.9836 0.1277 -0.1277
vn 0.9679 -0.2513 0.0000
vn 0.9836 -0.1277 -0.1277
vn 0.9836 -0.1277 0.1277
usemtl Material
s off
f 97//1 29//1 3//1 43//1
f 96//2 49//2 7//2 36//2
f 95//3 34//3 6//3 30//3
f 94//4 36//4 7//4 32//4
f 93//5 37//5 8//5 33//5
f 92//6 27//6 4//6 45//6
f 91//6 50//6 16//6 33//6
f 90//6 51//6 21//6 52//6
f 89//6 39//6 10//6 53//6
f 88//5 54//5 16//5 45//5
f 56//7 87//7 104//7 102//7
f 86//5 49//5 20//5 57//5
f 85//4 58//4 15//4 44//4
f 84//4 59//4 22//4 60//4
f 83//4 48//4 19//4 61//4
f 82//8 62//8 13//8 42//8
f 81//9 63//9 23//9 64//9
f 80//10 46//10 17//10 65//10
f 79//11 66//11 19//11 48//11
f 78//12 67//12 24//12 68//12
f 77//13 37//13 20//13 69//13
f 76//14 70//14 14//14 31//14
f 75//7 71//7 25//7 72//7
f 74//15 41//15 12//15 73//15
f 71//7 74//7 73//7 25//7
f 9//16 26//16 74//16 71//16
f 26//17 2//17 41//17 74//17
f 39//18 75//18 72//18 10//18
f 1//19 38//19 75//19 39//19
f 38//16 9//16 71//16 75//16
f 27//20 76//20 31//20 4//20
f 10//18 72//18 76//18 27//18
f 72//7 25//7 70//7 76//7
f 67//12 77//12 69//12 24//12
f 18//21 35//21 77//21 67//21
f 35//22 8//22 37//22 77//22
f 46//23 78//23 68//23 17//23
f 5//24 47//24 78//24 46//24
f 47//21 18//21 67//21 78//21
f 34//25 79//25 48//25 6//25
f 17//23 68//23 79//23 34//23
f 68//12 24//12 66//12 79//12
f 63//9 80//9 65//9 23//9
f 11//26 28//26 80//26 63//26
f 28//27 5//27 46//27 80//27
f 38//28 81//28 64//28 9//28
f 1//29 40//29 81//29 38//29
f 40//26 11//26 63//26 81//26
f 26//30 82//30 42//30 2//30
f 9//28 64//28 82//28 26//28
f 64//9 23//9 62//9 82//9
f 59//4 83//4 61//4 22//4
f 13//4 30//4 83//4 59//4
f 30//4 6//4 48//4 83//4
f 41//4 84//4 60//4 12//4
f 2//4 42//4 84//4 41//4
f 42//4 13//4 59//4 84//4
f 29//4 85//4 44//4 3//4
f 12//4 60//4 85//4 29//4
f 60//4 22//4 58//4 85//4
f 93//6 54//6 101//6 106//6
f 15//5 32//5 86//5 55//5
f 32//5 7//5 49//5 86//5
f 43//5 87//5 56//5 14//5
f 3//5 44//5 87//5 43//5
f 44//5 15//5 55//5 87//5
f 31//5 88//5 45//5 4//5
f 14//5 56//5 88//5 31//5
f 87//4 55//4 98//4 104//4
f 51//6 89//6 53//6 21//6
f 11//6 40//6 89//6 51//6
f 40//6 1//6 39//6 89//6
f 47//6 90//6 52//6 18//6
f 5//6 28//6 90//6 47//6
f 28//6 11//6 51//6 90//6
f 35//6 91//6 33//6 8//6
f 18//6 52//6 91//6 35//6
f 52//6 21//6 50//6 91//6
f 50//6 92//6 45//6 16//6
f 21//6 53//6 92//6 50//6
f 53//6 10//6 27//6 92//6
f 54//5 93//5 33//5 16//5
f 57//12 93//12 106//12 100//12
f 57//5 20//5 37//5 93//5
f 58//4 94//4 32//4 15//4
f 22//4 61//4 94//4 58//4
f 61//4 19//4 36//4 94//4
f 62//8 95//8 30//8 13//8
f 23//9 65//9 95//9 62//9
f 65//10 17//10 34//10 95//10
f 66//11 96//11 36//11 19//11
f 24//12 69//12 96//12 66//12
f 69//13 20//13 49//13 96//13
f 70//14 97//14 43//14 14//14
f 25//7 73//7 97//7 70//7
f 73//15 12//15 29//15 97//15
f 104//5 98//5 99//5 102//5
f 98//5 103//5 100//5 99//5
f 102//5 99//5 101//5 105//5
f 99//5 100//5 106//5 101//5
f 55//4 86//4 103//4 98//4
f 54//6 88//6 105//6 101//6
f 86//12 57//12 100//12 103//12
f 88//7 56//7 102//7 105//7
