{"accessors":[{"name":"Cube-Mesh_0_positions","componentType":5126,"count":254,"min":[-5.45084285736084,-2.172243118286133,-1],"max":[1.1298240423202515,2.388400077819824,1.0000009536743164],"type":"VEC3","bufferView":0,"byteOffset":0},{"name":"Cube-Mesh_0_normals","componentType":5126,"count":254,"min":[-1,-1,-1],"max":[1,1,1],"type":"VEC3","bufferView":1,"byteOffset":0},{"name":"Cube-Mesh_0_indices","componentType":5123,"count":624,"min":[0],"max":[253],"type":"SCALAR","bufferView":2,"byteOffset":0}],"asset":{"generator":"obj2gltf","version":"2.0"},"buffers":[{"name":"input","byteLength":7344,"uri":"data:application/octet-stream;base64,"}],"bufferViews":[{"name":"bufferView_0","buffer":0,"byteLength":3048,"byteOffset":0,"byteStride":12,"target":34962},{"name":"bufferView_1","buffer":0,"byteLength":3048,"byteOffset":3048,"byteStride":12,"target":34962},{"name":"bufferView_2","buffer":0,"byteLength":1248,"byteOffset":6096,"target":34963}],"materials":[{"name":"Material","pbrMetallicRoughness":{"baseColorFactor":[0.5,0.5,0.5,1],"metallicFactor":0,"roughnessFactor":1},"emissiveFactor":[0,0,0],"alphaMode":"OPAQUE","doubleSided":false}],"meshes":[{"name":"Cube-Mesh","primitives":[{"attributes":{"POSITION":0,"NORMAL":1},"indices":2,"material":0,"mode":4}]}],"nodes":[{"name":"Cube","mesh":0}],"scene":0,"scenes":[{"nodes":[0]}]}
